<svg xmlns="http://www.w3.org/2000/svg" width="133" height="124" viewBox="-20 -5 156 129">
    <g fill="none" fill-rule="evenodd">
        <g transform="translate(.28 .202)">
            <path fill="#E5E5E5" fill-rule="nonzero" d="M12.792 67.413H1.56c-.78 0-1.404.624-1.404 1.404v2.81c0 .78.624 1.404 1.404 1.404h11.232c.78 0 1.404-.625 1.404-1.405v-2.809c-.052-.78-.676-1.404-1.404-1.404zM105.924 100.131H94.692c-.78 0-1.404.624-1.404 1.404v2.81c0 .78.624 1.404 1.404 1.404h11.232c.78 0 1.404-.624 1.404-1.405v-2.809c-.052-.728-.676-1.404-1.404-1.404zM21.684 76.256H10.452c-.78 0-1.404.624-1.404 1.404v2.809c0 .78.624 1.404 1.404 1.404h11.232c.78 0 1.404-.624 1.404-1.404V77.66c-.052-.728-.676-1.404-1.404-1.404z"/>
            <g fill="#230545" fill-rule="nonzero">
                <path d="M81.952 85.098a1.884 1.884 0 0 0 0-2.652 1.883 1.883 0 0 0-2.652 0 1.884 1.884 0 0 0 0 2.652 1.883 1.883 0 0 0 2.652 0z"/>
                <path d="M68.016 70.482v2.549l12.012 11.86 1.3-1.301z"/>
            </g>
            <path stroke="#230545" stroke-width="1.404" d="M69.836 84.006H71.5a2.797 2.797 0 0 1 2.808 2.809v1.873a2.797 2.797 0 0 0 2.808 2.808h2.34a2.797 2.797 0 0 1 2.808 2.81 2.797 2.797 0 0 0 2.808 2.808h.104a2.797 2.797 0 0 0 2.808-2.809 2.797 2.797 0 0 1 2.808-2.809h11.596a2.797 2.797 0 0 0 2.808-2.808v-4.422M27.976 91.756v8.219a2.797 2.797 0 0 0 2.808 2.809h.468a2.797 2.797 0 0 0 2.808-2.809 2.797 2.797 0 0 1 2.808-2.809h11.44"/>
            <path fill="#7CB5E0" fill-rule="nonzero" d="M99.788 82.81a5.594 5.594 0 0 0-5.616-5.618H82.004a5.594 5.594 0 0 0-5.616 5.618c0 1.248.416 2.34 1.04 3.277h21.268c.728-.885 1.092-2.029 1.092-3.277z"/>
            <path fill="#4495D4" fill-rule="nonzero" d="M77.48 86.087c1.04 1.404 2.652 2.34 4.576 2.34h12.168c1.872 0 3.536-.936 4.576-2.34H77.48z"/>
            <path fill="#FFF" fill-rule="nonzero" d="M80.652 83.746a.932.932 0 0 1-.936-.936c0-.52.416-.937.936-.937s.936.417.936.937c-.052.52-.468.936-.936.936zM84.344 83.746a.932.932 0 0 1-.936-.936c0-.52.416-.937.936-.937s.936.417.936.937c.052.52-.416.936-.936.936z"/>
            <ellipse cx="94.484" cy="82.966" fill="#357DB6" fill-rule="nonzero" rx="5.46" ry="5.462"/>
            <ellipse cx="94.484" cy="82.966" fill="#4495D4" fill-rule="nonzero" rx="4.004" ry="4.005"/>
            <path fill="#230545" fill-rule="nonzero" d="M94.224 81.925h9.36v1.873h-9.36z"/>
            <ellipse cx="94.659" cy="82.804" fill="#230545" fill-rule="nonzero" rx="1.872" ry="1.873" transform="rotate(-45 94.66 82.804)"/>
            <path stroke="#230545" stroke-width="1.404" d="M31.512 43.277h-8.216a2.797 2.797 0 0 0-2.808 2.81v11.235a2.797 2.797 0 0 0 2.808 2.809h8.424a2.797 2.797 0 0 1 2.808 2.809v.728"/>
            <ellipse cx="34.268" cy="66.477" fill="#230545" fill-rule="nonzero" rx="4.68" ry="4.681"/>
            <g fill-rule="nonzero">
                <path fill="#357DB6" d="M40.3 65.8c-.26-1.3-1.456-2.132-2.704-2.132H25.22c1.508 0 2.756 1.248 2.756 2.809 0 1.56-1.248 2.808-2.756 2.808h12.428A2.828 2.828 0 0 0 40.3 65.8z"/>
                <path fill="#4495D4" d="M26.364 63.668h-.988c-1.3 0-2.444.884-2.704 2.132-.416 1.821.936 3.485 2.652 3.485h1.092c1.716 0 3.068-1.612 2.652-3.485-.26-1.3-1.404-2.132-2.704-2.132z"/>
            </g>
            <g fill-rule="nonzero">
                <path fill="#230545" d="M23.504 92.64h14.352a4.361 4.361 0 0 0 4.368-4.369V69.806a4.361 4.361 0 0 0-4.368-4.37H23.504v27.205z"/>
                <path fill="#544463" d="M28.704 88.323V69.858a4.361 4.361 0 0 0-4.368-4.37h-.676a4.361 4.361 0 0 0-4.368 4.37v18.465a4.361 4.361 0 0 0 4.368 4.37h.676c2.392-.052 4.368-1.977 4.368-4.37z"/>
            </g>
            <path fill="#544463" fill-rule="nonzero" d="M48.464 90.3h-6.188l3.536 13.212H52z"/>
            <path fill="#230545" fill-rule="nonzero" d="M56.16 90.3H45.396l3.536 13.212h10.764z"/>
            <path fill="#4495D4" fill-rule="nonzero" d="M68.328 94.565H44.252a4.361 4.361 0 0 1-4.368-4.369V68.921a4.361 4.361 0 0 1 4.368-4.369h24.076a4.361 4.361 0 0 1 4.368 4.37v21.274c0 2.393-1.976 4.37-4.368 4.37z"/>
            <path fill="#7CB5E0" fill-rule="nonzero" d="M45.552 94.565h-5.616c-2.34 0-4.212-1.976-4.212-4.369V68.973c0-2.392 1.872-4.369 4.212-4.369h5.616c2.34 0 4.212 1.977 4.212 4.37v21.222c0 2.393-1.924 4.37-4.212 4.37z"/>
            <g fill-rule="nonzero">
                <path fill="#230545" d="M64.272 64.552v1.144c0 2.497-1.872 4.474-4.212 4.474h2.652a4.361 4.361 0 0 0 4.368-4.37v-1.248h-2.808z"/>
                <path fill="#544463" d="M64.688 65.852v-1.248H54.86v1.248a4.361 4.361 0 0 0 4.368 4.37h1.144c2.392-.052 4.316-1.977 4.316-4.37z"/>
            </g>
            <ellipse cx="42.692" cy="82.081" fill="#DE5833" fill-rule="nonzero" rx="1.092" ry="1.092"/>
            <ellipse cx="42.692" cy="86.035" fill="#DE5833" fill-rule="nonzero" rx="1.092" ry="1.092"/>
            <path fill="#4495D4" fill-rule="nonzero" d="M45.604 67.413h-5.72c-.988 0-1.82.78-1.82 1.716v19.975c0 .936.832 1.716 1.82 1.716h5.72c.988 0 1.82-.78 1.82-1.716V69.129c0-.988-.832-1.716-1.82-1.716z"/>
            <ellipse cx="42.224" cy="82.81" fill="#230545" fill-rule="nonzero" rx="1" ry="1"/>
            <ellipse cx="42.224" cy="87.491" fill="#230545" fill-rule="nonzero" rx="1" ry="1"/>
            <g fill-rule="nonzero">
                <path fill="#544463" d="M66.456 86.919H55.848c-1.092 0-2.028.572-2.6 1.404a2.991 2.991 0 0 0 2.808 1.977h10.192c1.3 0 2.392-.832 2.808-1.977-.52-.884-1.508-1.404-2.6-1.404z"/>
                <path fill="#230545" d="M66.248 84.318H56.056a2.963 2.963 0 0 0-2.964 2.965c0 .364.052.676.156.988.572-.832 1.508-1.404 2.6-1.404h10.608c1.092 0 2.028.572 2.6 1.404a3.03 3.03 0 0 0 .156-.988c.052-1.612-1.3-2.965-2.964-2.965z"/>
            </g>
            <path fill="#357DB6" fill-rule="nonzero" d="M45.604 66.893h-5.72c-.988 0-1.82.728-1.82 1.612v1.82c0-.883.832-1.56 1.82-1.56h5.772c.988 0 1.82.677 1.82 1.56v-1.82c-.052-.884-.884-1.612-1.872-1.612z"/>
            <path fill="#544463" fill-rule="nonzero" d="M33.592 81.925h2.08v-6.554h-2.08c-.936 0-1.664.677-1.664 1.56v3.434c0 .832.78 1.56 1.664 1.56z"/>
            <path fill="#230545" fill-rule="nonzero" d="M35.464 81.925h.208v-6.554h-.208c-.936 0-1.664.677-1.664 1.56v3.434c.052.832.78 1.56 1.664 1.56z"/>
            <g fill-rule="nonzero" transform="translate(39.52 63.46)">
                <path fill="#357DB6" d="M13.728 11.756a5.293 5.293 0 0 0-.052 3.9c1.04 2.914 4.16 4.682 6.968 3.954.988-.26 7.176-1.925 12.532-3.329V6.658c-7.592 1.977-16.432 4.317-19.448 5.098z"/>
                <path fill="#230545" d="M39.35 5.76L52.243.206l.823 1.911-12.895 5.554z"/>
                <g transform="translate(14.56 .52)">
                    <path fill="#7CB5E0" d="M25.844.312C24.128.78 6.136 5.358 4.42 5.826 2.86 6.242 1.664 7.282.936 8.583 5.46 7.438 22.828 2.965 30.16 1.093 28.964.26 27.404-.105 25.844.312z"/>
                    <path fill="#4495D4" d="M.52 12.432c.728 2.913 3.692 4.681 6.604 3.901 1.716-.468 19.708-5.045 21.424-5.514 2.912-.728 4.68-3.693 3.9-6.606a5.675 5.675 0 0 0-2.236-3.173C22.828 2.913 5.512 7.386.988 8.53.364 9.728.156 11.08.52 12.433z"/>
                    <ellipse cx="5.096" cy="11.027" fill="#7CB5E0" rx="5.096" ry="5.098"/>
                    <ellipse cx="5.096" cy="11.027" fill="#4495D4" rx="3.64" ry="3.641"/>
                </g>
                <ellipse cx="19.604" cy="11.392" fill="#230545" rx="1.872" ry="1.873"/>
                <ellipse cx="3.172" cy="11.235" fill="#230545" rx="2.912" ry="2.913"/>
                <path fill="#230545" d="M4.576 10.455h14.04v1.873H4.576z"/>
            </g>
            <path fill="#230545" fill-rule="nonzero" d="M107.276 73.915s3.172 3.745 3.64 5.41c.78 2.808-1.716 2.652-2.184 2.652h-6.552c-.468 0-2.964.156-2.184-2.652.468-1.717 3.64-5.41 3.64-5.41H101.4s-3.224 3.797-3.692 5.514c-1.092 3.953 2.704 4.785 4.42 4.785h6.656c1.716 0 5.512-.832 4.42-4.785-.468-1.717-3.692-5.514-3.692-5.514h-2.236z"/>
            <ellipse cx="105.456" cy="84.734" fill="#230545" fill-rule="nonzero" rx="3.276" ry="3.277"/>
            <ellipse cx="105.456" cy="84.734" fill="#4495D4" fill-rule="nonzero" rx="1.872" ry="1.873"/>
            <ellipse cx="105.456" cy="84.734" fill="#FFF" fill-rule="nonzero" rx="1" ry="1"/>
            <path fill="#DE5833" fill-rule="nonzero" d="M105.456 67.829s-2.34 1.665-2.34 4.213c0 .312.052.573.208.833.104.208.884 1.456 2.132 1.456 1.248 0 2.028-1.248 2.132-1.456.104-.26.208-.573.208-.833-.052-2.548-2.34-4.213-2.34-4.213z"/>
            <path fill="#FFB652" fill-rule="nonzero" d="M106.184 70.742c-.416-.728-.728-.936-.728-.936s-.364.156-.728.936c-.832 1.56.26 2.34.728 2.34.468 0 1.56-.78.728-2.34z"/>
            <path fill="#230545" fill-rule="nonzero" d="M102.128 73.915v3.85c0 1.508 1.456 2.704 3.276 2.704 1.82 0 3.276-1.248 3.276-2.705v-3.85h-6.552z"/>
            <path fill="#FFF" fill-rule="nonzero" d="M69.992 71.054c.156.364-.052.78-.416.936l-.364.104c-.364.156-.78-.052-.936-.416l-.104-.364c-.156-.364.052-.78.416-.936l.364-.104c.364-.156.78.052.936.416l.104.364zM73.372 69.858c.156.364-.052.78-.416.936l-.364.104c-.364.156-.78-.052-.936-.416l-.104-.364c-.156-.364.052-.78.416-.937l.364-.104c.364-.156.78.052.936.417l.104.364z"/>
            <path fill="#230545" fill-rule="nonzero" d="M24.024 89.416c-.78 0-1.404-.624-1.404-1.405v-17.79c0-.78.624-1.404 1.404-1.404.78 0 1.404.625 1.404 1.405v17.79c-.052.728-.676 1.404-1.404 1.404z"/>
            <g fill-rule="nonzero" transform="translate(14.56 97.79)">
                <path fill="#9C452D" d="M73.996 17.946v0z"/>
                <path fill="#230545" d="M72.072 14.148L59.904 1.977C58.864.937 57.564 0 55.952 0H35.36c-.936 0-1.768.364-2.6.728L3.9 13.264c-2.34.988-4.16 3.07-3.484 5.93.52 2.185 2.548 3.693 4.836 3.693h64.844c2.236 0 3.9-2.237 3.9-4.577v-.364c-.104-1.405-.936-2.81-1.924-3.798z"/>
                <path fill="#544463" d="M6.292 21.067c-1.56 0-3.016-1.093-3.276-2.653-.416-2.289 1.664-3.381 2.496-3.745l28.6-12.432c.624-.26 1.144-.312 1.664-.312.936 0 1.872.26 2.756 1.196l.052.052 12.012 12.016c.988.988 1.456 1.82 1.456 2.705 0 1.456-1.3 3.225-2.912 3.225H6.292v-.052zM64.168 14.148L52 1.977C51.116.78 49.712.052 48.1.052h-3.952c1.612 0 3.016.78 3.9 1.925l12.168 12.171c1.196.885 1.924 2.29 1.924 3.902 0 2.34-1.664 4.317-3.9 4.785l-.052.104h3.952l.052-.104c2.236-.468 3.9-2.445 3.9-4.785 0-1.613-.78-3.017-1.924-3.902z"/>
                <path fill="#230545" d="M7.644 16.073c-.468.208-2.028.988-1.3 2.289.312.572.936.884 1.56.884h40.092c.572 0 1.196-.884 1.196-1.56 0-.157 0-.573-.884-1.509L37.024 4.681l-.052-.052-.052-.052c-.312-.364-.832-.832-1.352-.832-.208 0-.676.208-1.04.364l-.156.052L7.644 16.073z"/>
                <path fill="#544463" d="M13 16.905c-1.04 0-1.144-.364-.156-.78l21.112-9.207c.988-.416 2.392-.156 3.172.572l8.008 8.01c.728.729.52 1.353-.572 1.353H13v.052z"/>
                <ellipse cx="34.944" cy="9.623" fill="#230545" rx="1.144" ry="1.144"/>
                <ellipse cx="41.236" cy="15.033" fill="#230545" rx="1" ry="1"/>
                <ellipse cx="20.696" cy="15.033" fill="#230545" rx="1" ry="1"/>
            </g>
            <path fill="#230545" fill-rule="nonzero" d="M104.468 79.065h1.872v3.745h-1.872z"/>
            <g fill-rule="nonzero" transform="translate(88.4)">
                <path fill="#DE5833" d="M40.196 24.344s-1.56 1.144-1.976 2.132c-.78-2.497-4.42-6.034-4.42-6.034s-1.768.833-2.808 2.133c-1.664-4.37-6.292-8.687-6.292-8.687s-5.876 5.462-7.332 9.831c-.936-1.04-1.768-1.82-1.768-1.82s-2.652 2.08-3.224 4.317c-.988-1.456-2.912-1.976-2.912-1.976s-4.16 2.704-4.16 8.426v26.32c0 2.601 2.08 4.682 4.68 4.682h28.548c2.6 0 4.68-2.08 4.68-4.682v-26.32c.052-6.086-3.016-8.322-3.016-8.322z"/>
                <path fill="#FFF" d="M7.696 34.643v22.263a3.95 3.95 0 0 0 3.952 3.953h25.064a3.729 3.729 0 0 0 3.744-3.745V34.643H7.696z"/>
                <path fill="#230545" d="M36.452 28.557H11.44a3.729 3.729 0 0 0-3.744 3.745v2.34h32.76V32.51c0-2.185-1.82-3.953-4.004-3.953z"/>
                <g transform="translate(13 37.452)">
                    <path fill="#6FBF5C" d="M4.004 14.617c-2.08-2.861-2.028-6.867.208-9.623 2.86-3.538 7.956-3.85 11.232-1.093.26.208.676.208.936-.052l.416-.416a.695.695 0 0 0-.052-1.04C12.948-.832 7.072-.728 3.38 2.965c-3.848 3.85-3.848 10.143 0 13.992 3.588 3.59 9.36 3.85 13.208.728l-1.352-1.456c-3.38 2.6-8.476 2.08-11.232-1.612z"/>
                    <path fill="#6FBF5C" d="M18.096 18.258v-3.33a.466.466 0 0 0-.468-.468H14.3c-.416 0-.624.52-.312.78l3.328 3.33c.26.312.78.104.78-.312z"/>
                    <path fill="#230545" d="M13.624 9.831h-3.016V5.826a.688.688 0 0 0-.676-.676.688.688 0 0 0-.676.676v4.89c0 .26.208.467.468.467h3.952a.744.744 0 0 0 .728-.728c-.052-.312-.416-.624-.78-.624z"/>
                    <ellipse cx="19.032" cy="8.375" fill="#230545" rx="2.808" ry="2.809"/>
                    <path fill="#230545" d="M21.996 12.224l-3.068-3.07c-.208-.207-.208-.571 0-.831.208-.208.572-.208.832 0l3.068 3.069c.208.208.208.572 0 .832-.26.208-.624.208-.832 0z"/>
                    <ellipse cx="19.032" cy="8.375" fill="#FFF" rx="1.404" ry="1.404"/>
                </g>
                <g transform="translate(9.36 30.69)">
                    <ellipse cx="8.632" cy="1.092" fill="#6FBF5C" rx="1" ry="1"/>
                    <ellipse cx="4.836" cy="1.092" fill="#FFB652" rx="1" ry="1"/>
                    <ellipse cx="1.144" cy="1.092" fill="#DE5833" rx="1" ry="1"/>
                </g>
                <path fill="#DE5833" d="M43.472 19.194c-.364 0-.676-.312-.676-.728v-2.341c0-.364.312-.728.676-.728.364 0 .676.312.676.728v2.34c0 .365-.312.729-.676.729zM8.84 13.992a.688.688 0 0 1-.676-.676v-2.34c0-.365.312-.677.676-.677.364 0 .676.312.676.676v2.341a.688.688 0 0 1-.676.676zM27.352 6.086c-.78 0-1.404-.624-1.404-1.405V1.873c0-.78.624-1.405 1.404-1.405.78 0 1.404.624 1.404 1.405V4.68c-.052.729-.676 1.405-1.404 1.405z"/>
                <path fill="#FFB652" d="M18.408 9.31a.932.932 0 0 1-.936-.935v-.469c0-.52.416-.936.936-.936s.936.416.936.936v.469c0 .52-.416.936-.936.936zM32.032 15.917a.932.932 0 0 1-.936-.936v-.469c0-.52.416-.936.936-.936s.936.416.936.936v.469c-.052.468-.468.936-.936.936z"/>
                <path fill="#DE5833" d="M6.292 21.015a.932.932 0 0 1-.936-.937v-.468c0-.52.416-.936.936-.936s.936.416.936.936v.468c-.052.52-.468.937-.936.937z"/>
                <path fill="#FFB652" d="M14.196 18.258a.932.932 0 0 1-.936-.937v-.468c0-.52.416-.936.936-.936s.936.416.936.936v.468c.052.469-.416.937-.936.937zM38.584 10.767a.932.932 0 0 1-.936-.936v-.988c0-.52.416-.937.936-.937s.936.417.936.937v.936c-.052.52-.468.988-.936.988z"/>
                <g>
                    <path fill="#9C452D" d="M20.228 60.39l-1.664-1.612-4.888 4.89h3.328z"/>
                    <path fill="#230545" d="M13.676 63.668l-1.872 1.872c-.728.729-1.872.729-2.548 0l-1.872-1.872H4.42h2.964l-4.16-4.162c-.728-.728-.728-1.872 0-2.548L9.36 50.82l-1.664-1.665-6.24 6.242a3.957 3.957 0 0 0 0 5.618l6.292 6.294a3.954 3.954 0 0 0 5.616 0l3.692-3.693h-3.38v.052z"/>
                </g>
                <path fill="#230545" d="M8.06 64.864c.52-2.653-1.768-4.89-4.42-4.421-1.456.26-2.652 1.456-2.964 2.965-.52 2.652 1.768 4.89 4.42 4.421 1.508-.312 2.704-1.508 2.964-2.965z"/>
                <ellipse cx="4.368" cy="64.084" fill="#4495D4" rx="2.34" ry="2.341"/>
                <ellipse cx="4.368" cy="64.084" fill="#FFF" rx="1" ry="1"/>
                <path fill="#FFF" d="M13.312 57.53h8.892v3.277h-8.892z"/>
                <path fill="#FFB652" d="M36.296 28.557c-.832-2.185-2.704-3.33-2.704-3.33s-.78.521-1.768 1.51c-.676.676-1.82.467-2.236-.417-1.82-3.901-4.836-6.502-4.836-6.502s-3.536 3.693-5.46 6.97c-.468.78-1.508.937-2.132.364-.468-.416-.884-.78-.884-.78s-1.404.936-2.392 2.185h22.412z"/>
            </g>
            <g fill-rule="nonzero" transform="translate(28.08 6.242)">
                <ellipse cx="4.784" cy="37.244" fill="#230545" rx="4.68" ry="4.681"/>
                <path fill="#230545" d="M24.908 11.496h1.404v6.086h-1.404z"/>
                <path fill="#230545" d="M28.86 16.697H17.212c-1.196 0-2.132.884-2.132 1.977v.728c0 1.092.936 1.977 2.132 1.977H28.86c1.196 0 2.132-.885 2.132-1.977v-.728c.052-1.093-.936-1.977-2.132-1.977z"/>
                <path fill="#544463" d="M20.54 19.35v-.728c0-1.093-.936-1.977-2.132-1.977h-1.196c-1.196 0-2.132.884-2.132 1.977v.728c0 1.092.936 1.977 2.132 1.977h1.196c1.196.052 2.132-.885 2.132-1.977z"/>
                <path fill="#4495D4" d="M21.684 19.454H12.74c-1.248 0-2.444.728-2.704 1.82-.416 1.51.936 2.861 2.652 2.861h9.048c1.716 0 3.068-1.352 2.652-2.86-.26-1.04-1.404-1.821-2.704-1.821z"/>
                <path fill="#357DB6" d="M37.96 21.275c-.26-1.04-1.404-1.821-2.704-1.821H16.432c1.508 0 2.704 1.04 2.704 2.34 0 1.301-1.196 2.341-2.704 2.341h18.876c1.716 0 3.068-1.352 2.652-2.86z"/>
                <path fill="#544463" d="M24.96 48.687h-7.124l-2.6 9.623h7.124z"/>
                <path fill="#230545" d="M29.484 48.687h-9.152l-2.548 9.623h9.1z"/>
                <path fill="#7CB5E0" d="M32.604 22.783H6.084c-1.976 0-3.588 1.613-3.588 3.641v20.859c0 1.976 1.612 3.64 3.588 3.64h26.52c1.976 0 3.588-1.612 3.588-3.64V26.424c0-2.028-1.612-3.64-3.588-3.64z"/>
                <path fill="#4495D4" d="M54.912 36.88c0-7.803-6.24-14.097-13.936-14.097h-33.8.364c7.384.364 13.26 6.502 13.26 14.044v10.456a3.596 3.596 0 0 1-3.588 3.589h34.112c1.976 0 3.588-1.613 3.588-3.641V36.879z"/>
                <g>
                    <path fill="#7CB5E0" d="M46.592 50.872c1.872 0 3.432-1.925 3.64-3.745H37.7c-.208 1.82-1.768 3.745-3.64 3.745h12.532z"/>
                    <path fill="#357DB6" d="M54.912 41.509h-5.616v5.618h5.616v-5.618zM37.544 41.509H24.908v2.185c0 1.872 1.664 3.433 3.692 3.433h8.892v-5.618h.052z"/>
                    <path fill="#4495D4" d="M37.544 41.509H50.18v5.618H37.544z"/>
                </g>
                <g>
                    <path fill="#4495D4" d="M12.896 31.678H9.36c-1.976 0-3.64 1.612-3.64 3.641v4.005c0 1.977 1.612 3.641 3.64 3.641h3.536c1.976 0 3.64-1.612 3.64-3.64v-4.006c0-2.029-1.664-3.641-3.64-3.641z"/>
                    <path fill="#357DB6" d="M13.208 39.272c0 1.977-1.664 3.641-3.744 3.641s-3.744-1.612-3.744-3.64v-4.006c0-1.977 1.664-3.641 3.744-3.641s3.744 1.612 3.744 3.64v4.006z"/>
                </g>
                <path fill="#9BD96F" d="M26.624 1.977C25.324.884 23.66.312 21.892.312c-1.768 0-3.432.572-4.732 1.665-.208.208-.26.52-.052.728.208.208.572.208.78.052a6.318 6.318 0 0 1 3.952-1.405c1.456 0 2.86.52 3.952 1.405.104.104.26.156.364.156a.59.59 0 0 0 .416-.156c.312-.312.26-.624.052-.78zM21.892 3.017a5.117 5.117 0 0 0-3.12 1.04c-.26.208-.26.52-.052.728.208.209.572.209.78.053a3.925 3.925 0 0 1 2.392-.833c.884 0 1.716.312 2.392.833.104.104.26.104.364.104a.59.59 0 0 0 .416-.157c.208-.208.208-.52-.052-.728a5.117 5.117 0 0 0-3.12-1.04z"/>
                <g transform="translate(21.32 26.008)">
                    <path fill="#7CB5E0" d="M28.964.468H.312C2.6 2.913 3.588 6.138 3.588 9.675v5.982c0 1.924 2.028 3.537 4.004 3.537h21.372c2.028 0 3.64-1.613 3.64-3.537V4.005c.052-1.924-1.612-3.537-3.64-3.537z"/>
                    <path fill="#230545" d="M12.948 18.258a2.797 2.797 0 0 1-2.808-2.81V4.214a2.797 2.797 0 0 1 2.808-2.809h21.06a2.797 2.797 0 0 1 2.808 2.81v11.235a2.797 2.797 0 0 1-2.808 2.809h-21.06z"/>
                    <path fill="#544463" d="M34.008 2.393c1.04 0 1.872.832 1.872 1.872v11.236c0 1.04-.832 1.872-1.872 1.872h-21.06a1.865 1.865 0 0 1-1.872-1.872V4.265c0-1.04.832-1.872 1.872-1.872h21.06zm0-1.925h-21.06a3.729 3.729 0 0 0-3.744 3.745V15.45a3.729 3.729 0 0 0 3.744 3.745h21.06a3.729 3.729 0 0 0 3.744-3.745V4.213c.052-2.028-1.664-3.745-3.744-3.745z"/>
                    <path fill="#E5E5E5" d="M22.308 12.692c.52 1.092 1.768 1.873 3.276 1.873 1.508 0 2.756-.78 3.276-1.873h-6.552z"/>
                    <ellipse cx="18.616" cy="8.01" fill="#82DCFF" rx="1.404" ry="1.404"/>
                    <ellipse cx="32.656" cy="8.01" fill="#82DCFF" rx="1.404" ry="1.404"/>
                </g>
                <path fill="#230545" d="M9.464 40.52c-.78 0-1.404-.624-1.404-1.404v-3.745c0-.78.624-1.404 1.404-1.404.78 0 1.404.624 1.404 1.404v3.745c0 .78-.624 1.405-1.404 1.405zM25.636 9.831c-.624 0-1.144.52-1.144 1.144v.78c0 .625.52 1.145 1.144 1.145.624 0 1.144-.52 1.144-1.144v-.78c.052-.625-.52-1.145-1.144-1.145zM21.216 8.271h1.404v8.895h-1.404z"/>
                <path fill="#230545" d="M21.892 6.554c-.624 0-1.144.52-1.144 1.144v.78c0 .625.52 1.145 1.144 1.145.624 0 1.144-.52 1.144-1.144v-.78c0-.625-.52-1.145-1.144-1.145z"/>
            </g>
            <path fill="#544463" fill-rule="nonzero" d="M88.556 116.152v-.312c0-.208-.052-.468-.104-.676H65.78v.208c0 .416-.104.832-.208 1.196h23.036c-.052-.156-.052-.26-.052-.416zM61.932 110.482h23.244l-1.404-1.456H60.684zM55.276 103.928h23.348l-1.404-1.456H54.028z"/>
        </g>
        <path fill="#C0C0C0" fill-rule="nonzero" d="M88.836 123.74H15.36c-.78 0-1.404-.624-1.404-1.405 0-.78.624-1.404 1.404-1.404h73.476c.78 0 1.404.624 1.404 1.404.052.78-.624 1.405-1.404 1.405z"/>
    </g>
</svg>
